<?xml version="1.0" encoding="UTF-8" standalone="no"?>
<!DOCTYPE svg PUBLIC "-//W3C//DTD SVG 1.1//EN" "http://www.w3.org/Graphics/SVG/1.1/DTD/svg11.dtd">
<svg width="100%" height="100%" viewBox="0 0 1437 449" version="1.1" xmlns="http://www.w3.org/2000/svg" xmlns:xlink="http://www.w3.org/1999/xlink" xml:space="preserve" xmlns:serif="http://www.serif.com/" style="fill-rule:evenodd;clip-rule:evenodd;stroke-linejoin:round;stroke-miterlimit:2;">
    <g transform="matrix(1,0,0,1,-28.9752,-34.9918)">
        <g transform="matrix(0.996506,0,0,1.00823,43.6338,42.4728)">
            <path d="M1411.28,68.774L1411.28,400.385C1411.28,412.863 1401.03,422.995 1388.4,422.995L62.38,422.995C49.755,422.995 39.505,412.863 39.505,400.385L39.505,68.774C39.505,56.295 49.755,46.164 62.38,46.164L1388.4,46.164C1401.03,46.164 1411.28,56.295 1411.28,68.774Z"/>
            <path d="M1426.36,68.774L1426.36,400.385C1426.36,421.088 1409.35,437.897 1388.4,437.897L62.38,437.897C41.433,437.897 24.427,421.088 24.427,400.385L24.427,68.774C24.427,48.07 41.433,31.262 62.38,31.262L1388.4,31.262C1409.35,31.262 1426.36,48.07 1426.36,68.774ZM1411.28,68.774C1411.28,56.295 1401.03,46.164 1388.4,46.164L62.38,46.164C49.755,46.164 39.505,56.295 39.505,68.774L39.505,400.385C39.505,412.863 49.755,422.995 62.38,422.995L1388.4,422.995C1401.03,422.995 1411.28,412.863 1411.28,400.385L1411.28,68.774Z"/>
        </g>
        <g transform="matrix(0.996506,0,0,1.00823,4.6338,3.4728)">
            <path d="M1411.28,68.774L1411.28,400.385C1411.28,412.863 1401.03,422.995 1388.4,422.995L62.38,422.995C49.755,422.995 39.505,412.863 39.505,400.385L39.505,68.774C39.505,56.295 49.755,46.164 62.38,46.164L1388.4,46.164C1401.03,46.164 1411.28,56.295 1411.28,68.774Z" style="fill:rgb(244,240,217);"/>
            <path d="M1426.36,68.774L1426.36,400.385C1426.36,421.088 1409.35,437.897 1388.4,437.897L62.38,437.897C41.433,437.897 24.427,421.088 24.427,400.385L24.427,68.774C24.427,48.07 41.433,31.262 62.38,31.262L1388.4,31.262C1409.35,31.262 1426.36,48.07 1426.36,68.774ZM1411.28,68.774C1411.28,56.295 1401.03,46.164 1388.4,46.164L62.38,46.164C49.755,46.164 39.505,56.295 39.505,68.774L39.505,400.385C39.505,412.863 49.755,422.995 62.38,422.995L1388.4,422.995C1401.03,422.995 1411.28,412.863 1411.28,400.385L1411.28,68.774Z"/>
        </g>
        <g>
            <g id="p_good_down" transform="matrix(1.12254,0,0,1.12254,13.3201,-1379.23)">
                <circle cx="156.29" cy="1442.84" r="17.006" style="fill:rgb(87,151,99);"/>
            </g>
            <g id="p_good_up" transform="matrix(1.12254,0,0,1.12254,13.3201,-1470.93)">
                <circle cx="156.29" cy="1442.84" r="17.006" style="fill:rgb(169,85,72);"/>
            </g>
            <g id="d_good_down" transform="matrix(1.12254,0,0,1.12254,517.331,-1307.32)">
                <circle cx="156.29" cy="1442.84" r="17.006" style="fill:rgb(169,85,72);"/>
            </g>
            <g id="d_good_up" transform="matrix(1.12254,0,0,1.12254,517.331,-1470.93)">
                <circle cx="156.29" cy="1442.84" r="17.006" style="fill:rgb(27,60,79);"/>
            </g>
            <g id="Pose-Depot" serif:id="Pose Depot" transform="matrix(5.76389,0,0,5.76389,-785.401,-7923.8)">
                <g transform="matrix(50,0,0,50,346.587,1432.23)">
                    <path d="M0.26,-0C0.227,-0 0.201,-0.01 0.18,-0.03C0.16,-0.051 0.15,-0.078 0.15,-0.112L0.15,-0.392L0.026,-0.392L0.026,-0.496L0.15,-0.496L0.15,-0.65L0.276,-0.65L0.276,-0.496L0.412,-0.496L0.412,-0.392L0.276,-0.392L0.276,-0.134C0.276,-0.114 0.285,-0.104 0.304,-0.104L0.4,-0.104L0.4,-0L0.26,-0Z" style="fill-rule:nonzero;"/>
                </g>
                <g transform="matrix(50,0,0,50,323.287,1432.23)">
                    <path d="M0.306,0.014C0.257,0.014 0.212,0.004 0.173,-0.016C0.134,-0.036 0.103,-0.065 0.08,-0.103C0.057,-0.141 0.046,-0.187 0.046,-0.24L0.046,-0.256C0.046,-0.309 0.057,-0.355 0.08,-0.393C0.103,-0.431 0.134,-0.46 0.173,-0.48C0.212,-0.5 0.257,-0.51 0.306,-0.51C0.355,-0.51 0.4,-0.5 0.439,-0.48C0.478,-0.46 0.509,-0.431 0.532,-0.393C0.555,-0.355 0.566,-0.309 0.566,-0.256L0.566,-0.24C0.566,-0.187 0.555,-0.141 0.532,-0.103C0.509,-0.065 0.478,-0.036 0.439,-0.016C0.4,0.004 0.355,0.014 0.306,0.014ZM0.306,-0.098C0.345,-0.098 0.377,-0.11 0.402,-0.135C0.427,-0.16 0.44,-0.196 0.44,-0.243L0.44,-0.253C0.44,-0.3 0.427,-0.335 0.402,-0.36C0.377,-0.385 0.345,-0.398 0.306,-0.398C0.267,-0.398 0.235,-0.385 0.21,-0.36C0.185,-0.335 0.172,-0.3 0.172,-0.253L0.172,-0.243C0.172,-0.196 0.185,-0.16 0.21,-0.135C0.235,-0.11 0.267,-0.098 0.306,-0.098Z" style="fill-rule:nonzero;"/>
                </g>
                <g transform="matrix(50,0,0,50,297.887,1432.23)">
                    <path d="M0.07,0.2L0.07,-0.496L0.194,-0.496L0.194,-0.436L0.212,-0.436C0.223,-0.455 0.241,-0.472 0.265,-0.487C0.289,-0.502 0.323,-0.51 0.368,-0.51C0.408,-0.51 0.445,-0.5 0.479,-0.48C0.513,-0.461 0.54,-0.432 0.561,-0.394C0.582,-0.356 0.592,-0.31 0.592,-0.256L0.592,-0.24C0.592,-0.186 0.582,-0.14 0.561,-0.102C0.54,-0.064 0.513,-0.035 0.479,-0.015C0.445,0.004 0.408,0.014 0.368,0.014C0.323,0.014 0.289,0.007 0.265,-0.008C0.242,-0.023 0.225,-0.04 0.214,-0.057L0.196,-0.057L0.196,0.2L0.07,0.2ZM0.33,-0.096C0.369,-0.096 0.402,-0.108 0.427,-0.133C0.453,-0.158 0.466,-0.195 0.466,-0.243L0.466,-0.253C0.466,-0.301 0.453,-0.337 0.427,-0.362C0.401,-0.387 0.369,-0.4 0.33,-0.4C0.291,-0.4 0.259,-0.387 0.233,-0.362C0.207,-0.337 0.194,-0.301 0.194,-0.253L0.194,-0.243C0.194,-0.195 0.207,-0.158 0.233,-0.133C0.259,-0.108 0.291,-0.096 0.33,-0.096Z" style="fill-rule:nonzero;"/>
                </g>
                <g transform="matrix(50,0,0,50,275.537,1432.23)">
                    <path d="M0.296,0.014C0.247,0.014 0.203,0.004 0.165,-0.017C0.128,-0.038 0.098,-0.068 0.077,-0.106C0.056,-0.145 0.046,-0.19 0.046,-0.242L0.046,-0.254C0.046,-0.306 0.056,-0.351 0.077,-0.389C0.098,-0.428 0.127,-0.457 0.164,-0.478C0.201,-0.499 0.245,-0.51 0.294,-0.51C0.343,-0.51 0.385,-0.499 0.421,-0.477C0.457,-0.456 0.485,-0.426 0.505,-0.387C0.525,-0.349 0.535,-0.305 0.535,-0.254L0.535,-0.211L0.174,-0.211C0.175,-0.177 0.188,-0.149 0.212,-0.128C0.236,-0.107 0.265,-0.096 0.3,-0.096C0.335,-0.096 0.361,-0.104 0.378,-0.119C0.395,-0.134 0.407,-0.151 0.416,-0.17L0.519,-0.116C0.51,-0.099 0.496,-0.08 0.478,-0.059C0.461,-0.039 0.437,-0.022 0.408,-0.007C0.379,0.007 0.341,0.014 0.296,0.014ZM0.175,-0.305L0.407,-0.305C0.404,-0.334 0.393,-0.357 0.372,-0.374C0.352,-0.391 0.326,-0.4 0.293,-0.4C0.259,-0.4 0.232,-0.391 0.212,-0.374C0.192,-0.357 0.18,-0.334 0.175,-0.305Z" style="fill-rule:nonzero;"/>
                </g>
                <g transform="matrix(50,0,0,50,249.837,1432.23)">
                    <path d="M0.066,-0.162L0.066,-0.538L0.198,-0.538L0.198,-0.162L0.066,-0.162ZM0.229,-0.12L0.308,-0.12C0.361,-0.12 0.4,-0.134 0.425,-0.162C0.45,-0.19 0.462,-0.229 0.462,-0.28L0.462,-0.42C0.462,-0.471 0.45,-0.511 0.425,-0.538C0.4,-0.566 0.361,-0.58 0.308,-0.58L0.229,-0.58L0.229,-0.7L0.306,-0.7C0.4,-0.7 0.471,-0.676 0.52,-0.628C0.569,-0.581 0.594,-0.51 0.594,-0.416L0.594,-0.284C0.594,-0.19 0.569,-0.119 0.52,-0.071C0.471,-0.024 0.4,0 0.306,0L0.229,0L0.229,-0.12Z"/>
                </g>
                <g transform="matrix(50,0,0,50,221.287,1432.23)">
                    <path d="M0.296,0.014C0.247,0.014 0.203,0.004 0.165,-0.017C0.128,-0.038 0.098,-0.068 0.077,-0.106C0.056,-0.145 0.046,-0.19 0.046,-0.242L0.046,-0.254C0.046,-0.306 0.056,-0.351 0.077,-0.389C0.098,-0.428 0.127,-0.457 0.164,-0.478C0.201,-0.499 0.245,-0.51 0.294,-0.51C0.343,-0.51 0.385,-0.499 0.421,-0.477C0.457,-0.456 0.485,-0.426 0.505,-0.387C0.525,-0.349 0.535,-0.305 0.535,-0.254L0.535,-0.211L0.174,-0.211C0.175,-0.177 0.188,-0.149 0.212,-0.128C0.236,-0.107 0.265,-0.096 0.3,-0.096C0.335,-0.096 0.361,-0.104 0.378,-0.119C0.395,-0.134 0.407,-0.151 0.416,-0.17L0.519,-0.116C0.51,-0.099 0.496,-0.08 0.478,-0.059C0.461,-0.039 0.437,-0.022 0.408,-0.007C0.379,0.007 0.341,0.014 0.296,0.014ZM0.175,-0.305L0.407,-0.305C0.404,-0.334 0.393,-0.357 0.372,-0.374C0.352,-0.391 0.326,-0.4 0.293,-0.4C0.259,-0.4 0.232,-0.391 0.212,-0.374C0.192,-0.357 0.18,-0.334 0.175,-0.305Z" style="fill-rule:nonzero;"/>
                </g>
                <g transform="matrix(50,0,0,50,201.587,1432.23)">
                    <path d="M0.276,0.014C0.211,0.014 0.158,0 0.117,-0.028C0.076,-0.056 0.051,-0.096 0.042,-0.148L0.158,-0.178C0.165,-0.143 0.179,-0.119 0.2,-0.106C0.222,-0.093 0.247,-0.086 0.276,-0.086C0.305,-0.086 0.327,-0.091 0.341,-0.101C0.355,-0.112 0.362,-0.125 0.362,-0.14C0.362,-0.155 0.355,-0.167 0.342,-0.175C0.329,-0.184 0.307,-0.191 0.278,-0.196L0.25,-0.201C0.215,-0.208 0.184,-0.217 0.155,-0.228C0.126,-0.24 0.103,-0.256 0.086,-0.277C0.069,-0.298 0.06,-0.324 0.06,-0.357C0.06,-0.406 0.078,-0.444 0.114,-0.47C0.15,-0.497 0.197,-0.51 0.256,-0.51C0.311,-0.51 0.357,-0.498 0.394,-0.473C0.431,-0.448 0.455,-0.416 0.466,-0.376L0.349,-0.34C0.344,-0.365 0.333,-0.383 0.316,-0.394C0.3,-0.405 0.28,-0.41 0.256,-0.41C0.232,-0.41 0.214,-0.406 0.201,-0.397C0.188,-0.389 0.182,-0.378 0.182,-0.363C0.182,-0.347 0.189,-0.335 0.202,-0.327C0.215,-0.32 0.233,-0.314 0.256,-0.31L0.284,-0.305C0.321,-0.298 0.355,-0.289 0.385,-0.278C0.416,-0.267 0.44,-0.252 0.457,-0.231C0.475,-0.211 0.484,-0.184 0.484,-0.149C0.484,-0.097 0.465,-0.057 0.427,-0.028C0.39,0 0.339,0.014 0.276,0.014Z" style="fill-rule:nonzero;"/>
                </g>
                <g transform="matrix(50,0,0,50,177.487,1432.23)">
                    <path d="M0.114,-0.437C0.131,-0.454 0.151,-0.469 0.173,-0.48C0.212,-0.5 0.257,-0.51 0.306,-0.51C0.355,-0.51 0.4,-0.5 0.439,-0.48C0.478,-0.46 0.509,-0.431 0.532,-0.393C0.536,-0.386 0.539,-0.38 0.543,-0.373C0.555,-0.346 0.563,-0.315 0.565,-0.281C0.566,-0.273 0.566,-0.264 0.566,-0.256L0.566,-0.24C0.566,-0.209 0.562,-0.181 0.555,-0.156C0.55,-0.139 0.543,-0.123 0.535,-0.108C0.534,-0.106 0.533,-0.105 0.532,-0.103C0.509,-0.065 0.478,-0.036 0.439,-0.016C0.4,0.004 0.355,0.014 0.306,0.014C0.257,0.014 0.212,0.004 0.173,-0.016C0.134,-0.036 0.103,-0.065 0.08,-0.103C0.057,-0.141 0.046,-0.187 0.046,-0.24L0.046,-0.256C0.046,-0.276 0.048,-0.296 0.051,-0.314C0.065,-0.326 0.076,-0.341 0.086,-0.357C0.101,-0.381 0.11,-0.407 0.114,-0.437ZM0.306,-0.098C0.345,-0.098 0.377,-0.11 0.402,-0.135C0.427,-0.16 0.44,-0.196 0.44,-0.243L0.44,-0.253C0.44,-0.3 0.427,-0.335 0.402,-0.36C0.377,-0.385 0.345,-0.398 0.306,-0.398C0.267,-0.398 0.235,-0.385 0.21,-0.36C0.185,-0.335 0.172,-0.3 0.172,-0.253L0.172,-0.243C0.172,-0.196 0.185,-0.16 0.21,-0.135C0.235,-0.11 0.267,-0.098 0.306,-0.098Z" style="fill-rule:nonzero;"/>
                </g>
            </g>
            <g transform="matrix(0.6597,0,0,0.6597,84.1091,-738.572)">
                <path d="M117.36,1316.1L117.36,1621.9L59.694,1621.9L59.694,1316.1L117.36,1316.1ZM201.218,1317.04C214.074,1318.63 225.73,1322.25 236.185,1327.9C251.038,1335.47 262.542,1346.25 270.696,1360.23C279.142,1374.2 283.365,1390.81 283.365,1410.03L283.365,1416.14C283.365,1421.27 283.045,1426.23 282.404,1431.01C280.678,1443.89 276.63,1455.54 270.26,1465.94C265.979,1473.03 260.877,1479.33 254.951,1484.84C249.184,1490.21 242.637,1494.83 235.311,1498.71C224.974,1504.08 213.61,1507.55 201.218,1509.11L201.218,1453.73C205.603,1451.9 209.541,1449.41 213.031,1446.29C221.477,1438.71 225.7,1428.37 225.7,1415.27L225.7,1410.9C225.7,1397.79 221.477,1387.46 213.031,1379.88C209.541,1376.75 205.603,1374.27 201.218,1372.44L201.218,1317.04Z"/>
            </g>
            <g transform="matrix(0.866025,0.5,-1.21577,2.10578,202.809,-285.442)">
                <rect x="301.081" y="160.942" width="11.311" height="16.371"/>
            </g>
        </g>
    </g>
</svg>
